<svg xmlns="http://www.w3.org/2000/svg" viewBox="0 0 64 64" role="img" aria-labelledby="title">
  <title id="title">Smith</title>
  <rect width="64" height="64" rx="18" fill="#E9F8F3"/>
  <path d="M19 21h17c6.6 0 12 5.4 12 12v10H31c-6.6 0-12-5.4-12-12V21Z" fill="#139874"/>
  <path d="M27 27h10a5 5 0 0 1 5 5v5H32a5 5 0 0 1-5-5v-5Z" fill="#10223D"/>
  <circle cx="20" cy="18" r="3" fill="#25A686"/>
  <circle cx="49" cy="19" r="3" fill="#256A8C"/>
  <circle cx="51" cy="47" r="3" fill="#25A686"/>
  <path d="M22 19h9M46.5 21l-5 6M48.5 45l-7-6" fill="none" stroke="#10223D" stroke-width="1.5" stroke-linecap="round"/>
</svg>
